<?xml version="1.0" encoding="UTF-8" standalone="no"?>
<!-- The icon can be used freely in both personal and commercial projects with no attribution required, but always appreciated. 
You may NOT sub-license, resell, rent, redistribute or otherwise transfer the icon without express written permission from iconmonstr.com -->

<svg
   xmlns:dc="http://purl.org/dc/elements/1.1/"
   xmlns:cc="http://creativecommons.org/ns#"
   xmlns:rdf="http://www.w3.org/1999/02/22-rdf-syntax-ns#"
   xmlns:svg="http://www.w3.org/2000/svg"
   xmlns="http://www.w3.org/2000/svg"
   xmlns:sodipodi="http://sodipodi.sourceforge.net/DTD/sodipodi-0.dtd"
   xmlns:inkscape="http://www.inkscape.org/namespaces/inkscape"
   version="1.1"
   x="0px"
   y="0px"
   width="32"
   height="32"
   viewBox="0 0 32 32"
   enable-background="new 0 0 512 512"
   xml:space="preserve"
   id="svg2"
   inkscape:version="0.48.4 r9939"
   sodipodi:docname="about.svg"><metadata
     id="metadata9"><rdf:RDF><cc:Work
         rdf:about=""><dc:format>image/svg+xml</dc:format><dc:type
           rdf:resource="http://purl.org/dc/dcmitype/StillImage" /><dc:title /></cc:Work></rdf:RDF></metadata><defs
     id="defs7" /><sodipodi:namedview
     pagecolor="#ffffff"
     bordercolor="#666666"
     borderopacity="1"
     objecttolerance="10"
     gridtolerance="10"
     guidetolerance="10"
     inkscape:pageopacity="0"
     inkscape:pageshadow="2"
     inkscape:window-width="1366"
     inkscape:window-height="721"
     id="namedview5"
     showgrid="false"
     fit-margin-top="0"
     fit-margin-left="0"
     fit-margin-right="0"
     fit-margin-bottom="0"
     inkscape:zoom="0.921875"
     inkscape:cx="162.69191"
     inkscape:cy="15.088527"
     inkscape:window-x="-2"
     inkscape:window-y="-3"
     inkscape:window-maximized="1"
     inkscape:current-layer="svg2" /><path
     d="M 16,0 C 7.1634175,0 0,7.16342 0,16 0,24.83658 7.1634175,32 16,32 24.836583,32 32,24.83658 32,16 32,7.16342 24.836583,0 16,0 z m 0,3.1068 c 3.443883,0 6.681243,1.34151 9.116505,3.7767 2.435262,2.43518 3.776699,5.67254 3.776699,9.1165 0,1.67076 -0.316821,3.29291 -0.919903,4.79854 -0.0878,-0.56816 -0.367713,-0.92907 -1.23301,-1.12864 -1.375479,-0.31732 -2.654051,-0.5955 -2.03398,-1.76456 1.887385,-3.55838 0.500383,-5.46117 -1.492719,-5.46117 -1.34889,0 -2.400485,0.87104 -2.400485,2.47573 0,4.4454 2.536175,2.03393 2.536408,7.1068 l 4.053398,0 c -0.595748,1.12392 -1.361409,2.16478 -2.286408,3.0898 C 22.681243,27.55161 19.443883,28.8932 16,28.8932 12.556117,28.8932 9.3187573,27.55161 6.8834951,25.1165 5.9584959,24.19148 5.192835,23.15062 4.5970874,22.0267 l 4.053398,0 c 2.338e-4,-5.07287 2.5364076,-2.66146 2.5364076,-7.1068 0,-1.60464 -1.051536,-2.47573 -2.4004852,-2.47573 -1.9931014,0 -3.3801033,1.90279 -1.4927185,5.46117 C 7.9137608,19.0744 6.6351891,19.35264 5.2597087,19.6699 4.3944127,19.86944 4.1144976,20.23037 4.026699,20.79854 3.423617,19.29291 3.1067961,17.67076 3.1067961,16 c 0,-3.44396 1.3415146,-6.68124 3.776699,-9.1165 C 9.3186796,4.44823 12.556117,3.1068 16,3.1068 z m 0,6.8665 c -2.556437,0 -4.259214,2.48476 -1.878641,6.86893 0.803282,1.47939 -0.867817,1.82789 -2.560679,2.21845 -1.729365,0.39884 -1.5946606,1.31158 -1.5946606,2.96602 l 12.0679616,0 c 0,-1.6545 0.134762,-2.56718 -1.594661,-2.96602 C 18.709256,18.66149 17.098683,18.31264 17.878641,16.84223 20.252742,12.36622 18.50699,9.9733 16,9.9733 z"
     id="email-10-icon"
     inkscape:connector-curvature="0" /></svg>