<?xml version="1.0" encoding="UTF-8" standalone="no"?>
<!-- The icon can be used freely in both personal and commercial projects with no attribution required, but always appreciated. 
You may NOT sub-license, resell, rent, redistribute or otherwise transfer the icon without express written permission from iconmonstr.com -->

<svg
   xmlns:dc="http://purl.org/dc/elements/1.1/"
   xmlns:cc="http://creativecommons.org/ns#"
   xmlns:rdf="http://www.w3.org/1999/02/22-rdf-syntax-ns#"
   xmlns:svg="http://www.w3.org/2000/svg"
   xmlns="http://www.w3.org/2000/svg"
   xmlns:sodipodi="http://sodipodi.sourceforge.net/DTD/sodipodi-0.dtd"
   xmlns:inkscape="http://www.inkscape.org/namespaces/inkscape"
   version="1.1"
   x="0px"
   y="0px"
   width="32"
   height="32"
   viewBox="0 0 32 32"
   enable-background="new 0 0 512 512"
   xml:space="preserve"
   id="svg2"
   inkscape:version="0.48.4 r9939"
   sodipodi:docname="globe.svg"><metadata
     id="metadata9"><rdf:RDF><cc:Work
         rdf:about=""><dc:format>image/svg+xml</dc:format><dc:type
           rdf:resource="http://purl.org/dc/dcmitype/StillImage" /></cc:Work></rdf:RDF></metadata><defs
     id="defs7" /><sodipodi:namedview
     pagecolor="#ffffff"
     bordercolor="#666666"
     borderopacity="1"
     objecttolerance="10"
     gridtolerance="10"
     guidetolerance="10"
     inkscape:pageopacity="0"
     inkscape:pageshadow="2"
     inkscape:window-width="1366"
     inkscape:window-height="721"
     id="namedview5"
     showgrid="false"
     fit-margin-top="0"
     fit-margin-left="0"
     fit-margin-right="0"
     fit-margin-bottom="0"
     inkscape:zoom="0.4609375"
     inkscape:cx="206"
     inkscape:cy="206"
     inkscape:window-x="-2"
     inkscape:window-y="-3"
     inkscape:window-maximized="1"
     inkscape:current-layer="svg2" /><path
     id="globe-5-icon"
     d="m 22.378485,9.70439 c 0.06889,0.23355 -0.213592,0.27767 -0.313708,0.22726 -0.05763,-0.029 -0.08381,0.0358 -0.125204,0.0555 -0.0018,9.3e-4 -0.004,0.002 -0.0058,0.003 -0.02951,6.9e-4 -0.06012,-0.006 -0.08047,-0.0117 -0.04986,-0.014 -0.258874,-0.0157 -0.336777,-0.0483 -3.11e-4,-1.6e-4 -6.99e-4,-3.1e-4 -0.0012,-5.5e-4 -0.01716,-0.008 -0.281864,-0.10811 -0.301204,-0.10213 -0.08443,0.0259 -0.183845,-0.0351 -0.261903,0.026 -0.04629,0.0358 -0.102136,0.0552 -0.147728,0.0913 -0.06353,0.0502 -0.0661,0.0521 -0.06711,0.0668 -1.55e-4,10e-4 -2.33e-4,0.003 -3.88e-4,0.004 -0.0018,0.0169 -0.0037,0.0313 -0.02392,0.04 -0.02478,0.0106 -0.064,0.0164 -0.08342,0.0164 -0.05701,2.4e-4 -0.113864,0.0101 -0.170796,0.004 -0.05142,-0.006 -0.100971,0.029 -0.152622,0.006 -7.7e-5,0 -7.7e-5,0 -2.33e-4,0 -0.09476,-0.0401 -0.175534,-0.10501 -0.235262,-0.18889 l -0.05957,-0.0834 c 0,-8e-5 -7.7e-5,-8e-5 -7.7e-5,-1.6e-4 -0.0043,-0.006 -0.0047,-0.0141 -9.32e-4,-0.0206 0.005,-0.009 0.01538,-0.0156 0.03619,0.004 7.8e-5,1.6e-4 2.33e-4,2.3e-4 3.88e-4,3.9e-4 0.0031,0.003 0.0081,0.004 0.01188,0.002 0.004,-0.002 0.006,-0.007 0.005,-0.011 -0.01173,-0.0494 -0.03239,-0.12295 -0.01553,-0.17149 2.33e-4,-4.7e-4 3.88e-4,-9.4e-4 5.43e-4,-10e-4 0.01018,-0.0288 0.05095,-0.0222 0.06089,-0.0515 0.01134,-0.034 -0.0077,-0.0654 -0.01002,-0.0982 -0.0013,-0.0154 0.01515,-0.15946 0.01515,-0.15992 0.0024,0 0.0028,0 0.0028,0 0.0275,-0.0131 0.03961,-0.0337 0.04544,-0.0573 0.01546,-0.062 0.04303,-0.1193 0.08171,-0.17017 0.01056,-0.0139 0.02198,-0.046 0.05025,-0.12567 0.01064,-0.0306 0.0132,-0.038 0.05942,-0.0508 0.05623,-0.0157 0.115496,-0.0203 0.173515,-0.0132 0.03076,0.004 0.06812,0.0102 0.112233,0.0211 0.004,10e-4 0.0073,0.004 0.0091,0.007 0,0 7.8e-5,8e-5 7.8e-5,1.5e-4 0.0025,0.005 7.77e-4,0.011 -0.0042,0.0137 -0.01274,0.007 -0.01988,0.0216 -0.01724,0.0363 0.0029,0.0164 0.01709,0.0283 0.03379,0.0286 0.02074,2.4e-4 0.03961,-0.008 0.05616,-0.0162 0.02804,-0.0127 0.03829,-0.0173 0.06136,-0.002 0.01802,0.0123 0.02765,0.0336 0.02485,0.0553 -0.0061,0.0475 -0.07045,0.0467 -0.06967,0.0849 3.88e-4,0.0157 0.01056,0.0294 0.0254,0.0342 0.0734,0.0221 0.125204,0.0751 0.147883,0.14012 8.55e-4,0.003 0.0019,0.005 0.0033,0.008 0.0032,0.006 0.01623,0.0246 0.05507,0.0202 0.01499,-0.002 0.158913,-0.13848 0.164272,-0.14936 0,-7e-5 7.8e-5,-7e-5 7.8e-5,-1.5e-4 0.0108,-0.0221 -0.0205,-0.028 -0.04218,-0.0396 -0.05126,-0.0273 -0.08489,-0.0791 -0.08901,-0.13693 -0.0043,-0.058 0.02151,-0.11395 0.06835,-0.14835 3.88e-4,-2.4e-4 6.99e-4,-4.7e-4 0.001,-6.2e-4 L 21.331867,8.6891 c 3.88e-4,-1.5e-4 0,0 3.88e-4,-1.5e-4 0.0046,-0.003 0.0096,-0.004 0.01484,-0.005 2.33e-4,0 4.66e-4,-8e-5 6.99e-4,-8e-5 0.01662,-0.002 0.131884,-0.0704 0.173748,-0.0752 0.01235,-0.002 0.04008,0.0287 0.03177,0.0512 -0.0053,0.0146 -0.0181,0.0375 -0.04839,0.0549 -0.03604,0.0208 -0.124116,0.0664 -0.119378,0.10719 0.0061,0.0513 0.06625,0.0323 0.09748,0.052 0.02369,0.0151 0.01561,0.0259 0.0092,0.0476 -7.8e-5,5.4e-4 -2.34e-4,0.001 -3.89e-4,0.002 -0.01732,0.0613 -0.04474,0.11821 -0.08171,0.17002 -0.0021,0.003 -0.0033,0.006 -0.0028,0.009 0.0073,0.0394 0.0073,0.0394 0.144078,0.0938 0.06082,0.0242 0.129942,-0.008 0.18866,0.028 0.133282,0.0818 0.232311,0.21189 0.383689,0.26665 0.05033,0.0182 0.217476,0.0871 0.254835,0.2139 z M 32,16 C 32,24.83658 24.836583,32 16.000078,32 7.163417,32 0,24.83658 0,16 0,7.16342 7.163417,0 16.000078,0 24.836583,0 32,7.16342 32,16 z M 11.287146,5.20901 c 0.0079,0.009 0.108815,0.0151 0.117903,0.0329 0.01351,0.0267 -0.03891,0.0498 -0.0275,0.0716 0.0031,0.006 0.0088,0.0103 0.01546,0.0116 0.01616,0.003 -0.0508,0.0693 -0.06012,0.0834 -0.01538,0.0233 0.0048,0.0843 0.03969,0.0829 0.0355,-0.001 0.05817,-0.0231 0.09157,-0.0617 0,0 0.09087,-0.0506 0.152078,-0.10144 0.05942,-0.0494 0.180505,-0.0636 0.225243,-0.14804 0.02439,-0.046 0.06866,-0.0757 0.105165,-0.0835 0.01569,-0.003 0.03153,0.006 0.03705,0.0207 0.0049,0.0211 0.284039,-0.10244 0.274097,-0.15122 -0.0087,-0.0453 0.01716,-0.0498 0.04645,-0.0373 0.02027,0.009 0.0372,0.002 0.05017,-0.009 0.08388,-0.07 0.210951,-0.1548 0.316815,-0.12769 0.02555,0.007 0.05258,0.003 0.07542,-0.0101 0.105709,-0.0604 0.117747,-0.0321 0.09235,-0.0222 -0.02757,0.0106 -0.104854,0.0387 -0.08932,0.0637 0.0039,0.006 0.01157,0.009 0.01856,0.006 0.04536,-0.0179 0.09274,-0.0273 0.141437,-0.0281 0.06757,-0.001 0.167456,-0.0123 0.256621,-0.0596 0.0038,-0.002 0.0078,-0.004 0.01165,-0.006 7.76e-4,-3.9e-4 0.0016,-7.8e-4 0.0023,-0.001 0.21134,-0.10726 0.298563,-0.17786 0.343145,-0.1478 0.01367,0.009 0.02128,0.0253 0.01988,0.0419 2.33e-4,1.5e-4 5.44e-4,3.1e-4 8.54e-4,5.4e-4 0.03464,0.0244 0.07153,7.8e-4 0.113088,-0.01 0,0 0.03379,0.0346 0.161087,0.0329 -0.03021,0.0777 1.303068,-0.21188 2.147185,-0.91122 0.228737,-0.18952 0.482796,-0.36482 0.736699,-0.52233 -0.232544,-0.0126 -0.466564,-0.0194 -0.702214,-0.0194 -0.914641,0 -1.806447,0.0965 -2.666563,0.27837 0.06144,0.009 0.05631,0.0831 0.01709,0.0967 -0.103611,0.0358 -0.221126,0.037 -0.308349,0.11231 -0.0076,0.007 -0.0096,0.0176 -0.0048,0.0263 0.0048,0.009 0.01507,0.013 0.02478,0.0102 0.01779,-0.005 0.04971,-0.017 0.12567,-0.0453 0.01328,-0.005 0.02936,0.004 0.02742,0.0183 -9.32e-4,0.005 -0.0043,0.01 -0.0094,0.0121 -0.03728,0.0163 -0.07922,0.0235 -0.115184,0.0425 -0.0071,0.004 -0.01111,0.0117 -0.0096,0.0197 0.0035,0.0192 -0.01375,0.0565 -0.0023,0.0673 1.55e-4,7e-5 2.33e-4,1.5e-4 3.88e-4,3.1e-4 -0.003,0.003 -0.37033,0.25367 -0.509204,0.26252 -2.33e-4,0 -4.66e-4,8e-5 -6.99e-4,8e-5 -0.166524,0.008 -0.320466,0.0744 -0.366214,0.11215 -0.04621,0.0382 -0.09639,0.0708 -0.150135,0.0975 -0.112,0.0558 -0.212195,0.15052 -0.27767,0.22167 -0.03355,0.0363 0.02517,0.0495 0.07122,0.0675 0,0 0.03153,0.0101 -0.01732,0.0171 -0.184156,0.0252 -0.342136,0.23293 -0.389903,0.30245 -0.0091,0.0132 -0.0091,0.0307 -1.56e-4,0.0438 2.33e-4,4.6e-4 6.22e-4,8.5e-4 9.32e-4,0.001 -0.08528,0.0844 -0.09344,0.0925 -0.156194,0.22003 -0.0038,0.008 -0.0025,0.0176 0.0034,0.0242 z m 4.164815,2.73181 c -3.88e-4,-0.003 0.0016,-0.006 0.0048,-0.007 0.0033,-10e-4 0.0071,-3.9e-4 0.01002,0.002 0.0021,0.002 0.0044,0.003 0.0062,0.005 0.01134,0.008 0.01825,0.009 0.02245,0.006 0.02501,-0.018 0.05173,-0.0349 0.07868,-0.0499 0.01445,-0.008 0.02307,-0.0242 0.03115,-0.0558 0.0023,-0.01 0.01165,-0.0596 -0.05173,-0.095 -3.88e-4,-1.5e-4 -8.54e-4,-4.6e-4 -0.0012,-7e-4 -0.0052,-0.003 -0.122952,-0.0635 -0.156272,-0.0452 -0.02221,0.0117 -0.02221,0.0117 -0.06307,-0.009 -0.0015,-0.006 7.77e-4,-0.0123 0.0056,-0.0161 0.04652,-0.0359 0.04645,-0.0364 0.04552,-0.0466 -0.0017,-0.0224 -0.01344,-0.0383 -0.0268,-0.0531 -0.01173,-0.0129 -0.01297,-0.032 -0.003,-0.0462 2.33e-4,-2.3e-4 3.11e-4,-4.6e-4 4.66e-4,-7e-4 0.0089,-0.0121 -0.03767,-0.11207 -0.03821,-0.11277 -0.0031,-0.003 -0.0047,-0.005 -0.01119,-0.005 -0.01949,10e-4 -0.04008,0.002 -0.05965,0.002 -0.0024,0 -0.0056,3.9e-4 -0.01025,0.001 -5.43e-4,8e-5 -0.0011,-1.5e-4 -0.0013,-6.2e-4 -0.0011,-0.002 -0.0012,-0.004 -6.99e-4,-0.006 0.0062,-0.0245 -0.01779,-0.0403 -0.02004,-0.0628 -0.0023,-0.0227 0.004,-0.0451 0.0063,-0.0676 0.0019,-0.0201 -4.66e-4,-0.0431 -0.0069,-0.0652 -0.02361,-0.0809 -0.01981,-0.16637 0.0089,-0.24365 0.01204,-0.0322 0.02866,-0.0631 0.0487,-0.0909 0.04637,-0.0644 -0.161864,-0.0562 -0.201243,-0.0536 -0.003,1.6e-4 -0.006,-0.001 -0.0076,-0.004 -0.0016,-0.003 -0.0015,-0.006 2.33e-4,-0.009 0.0101,-0.0152 0.01142,-0.0351 0.02563,-0.0483 0.01903,-0.0182 0.04489,-0.0239 0.06664,-0.0373 0.048,-0.03 0.0078,-0.0485 -0.0097,-0.0531 -0.04179,-0.0108 -0.08575,-0.0164 -0.128932,-0.0165 -0.01639,0 -0.03278,0.002 -0.04948,0.009 -0.01087,0.004 -0.02353,0.0176 -0.03635,0.0354 -0.0261,0.0364 -0.05685,0.0688 -0.09204,0.0967 -0.0019,10e-4 -0.0038,0.003 -0.0056,0.004 -0.0098,0.007 -0.0226,0.009 -0.03355,0.004 -0.0064,-0.003 -0.01367,-0.003 -0.02012,-7e-5 -0.0013,5.4e-4 -0.0026,10e-4 -0.0038,0.002 -0.01196,0.006 -0.02089,0.0156 -0.02734,0.0261 -0.0081,0.013 -0.0064,0.0297 0.004,0.0409 0.01041,0.0112 0.02711,0.0141 0.04054,0.007 7.8e-5,1.6e-4 1.56e-4,4.7e-4 2.33e-4,7e-4 0.0019,0.004 0.0018,0.009 -7.7e-5,0.0133 -0.0078,0.0172 -0.01017,0.036 -0.01724,0.0533 -7.77e-4,0.002 -0.0023,0.003 -0.0046,0.004 -0.0031,5.4e-4 -0.0063,-8.6e-4 -0.0081,-0.004 -0.0088,-0.0137 -0.01297,-0.0137 -0.01911,-0.0125 -5.44e-4,1.5e-4 -0.0013,3.1e-4 -0.0019,3.9e-4 -0.02478,0.005 -0.04218,0.0632 -0.04117,0.0799 3.88e-4,0.006 0.0021,0.01 0.0048,0.0127 0.03192,0.035 0.03472,0.0875 0.0065,0.12582 0,0 0,0 -7.8e-5,8e-5 -0.003,0.004 -0.0055,0.008 -0.0077,0.0122 -0.0041,0.008 -0.0015,0.0183 0.0062,0.0235 0.0078,0.005 0.01802,0.004 0.02408,-0.003 0.0073,-0.009 0.01662,-0.0196 0.02874,-0.034 0.01134,-0.0137 0.01522,-0.0184 0.032,-0.0257 0.01313,-0.006 0.02664,-0.0109 0.04023,-0.0153 0.0051,-0.002 0.01087,-7.7e-4 0.01514,0.002 0.0043,0.003 0.0068,0.008 0.0067,0.0139 -0.0013,0.0312 0.0092,0.0651 -0.02221,0.0896 -0.01794,0.0141 -0.03208,0.0252 -0.0428,0.0342 -0.01056,0.009 -0.01344,0.0239 -0.007,0.036 0.0066,0.0122 0.02066,0.0181 0.03394,0.0143 0,0 0,0 0.0016,0.001 0.0012,8.5e-4 0.002,0.002 0.0023,0.004 0.0088,0.037 0.0099,0.037 0.0588,0.007 0.0016,-9.3e-4 0.0033,-0.001 0.005,-6.9e-4 8.54e-4,2.3e-4 0.0016,7.7e-4 0.0019,0.002 0.0067,0.013 0.0174,0.0233 0.03052,0.0296 0.01817,0.009 0.03177,0.0257 0.03612,0.0462 2.33e-4,10e-4 5.44e-4,0.002 8.54e-4,0.004 3.89e-4,0.001 7e-4,0.002 0.0011,0.003 0.01662,0.0509 0.0032,0.10664 -0.03464,0.14438 -0.0379,0.0378 -0.09382,0.0509 -0.144544,0.034 0,0 -7.7e-5,0 -1.55e-4,0 -0.0085,-0.003 -0.01779,3.1e-4 -0.02291,0.008 -0.0051,0.007 -0.0047,0.0172 0.001,0.0241 0.005,0.006 0.01095,0.012 0.0108,0.0206 -8.54e-4,0.0316 -0.04062,0.0197 -0.05297,0.0408 -1.55e-4,3.1e-4 -3.1e-4,3.9e-4 -4.66e-4,6.2e-4 -7.76e-4,0.001 -0.0013,0.003 -0.0016,0.005 -3.88e-4,0.004 0.0012,0.008 0.0043,0.0109 0.003,0.003 0.0072,0.004 0.01126,0.003 0.01825,-0.004 0.03301,-0.0194 0.05227,-0.0211 0.03635,-0.002 0.0089,0.0887 -0.003,0.10206 -0.01328,0.0148 -0.105165,0.0475 -0.134292,0.0516 -0.01864,0.003 -0.03107,0.005 -0.03728,0.0113 -0.0058,0.007 -0.0096,0.0448 0.01615,0.0572 0.0393,0.0187 0.07588,-0.0156 0.114874,-0.006 0,0 0,0 7.8e-5,0 0.03689,0.01 0.07029,0.0295 0.09639,0.0571 0.0022,0.002 0.005,0.004 0.0078,0.005 0.01266,0.005 0.02687,0.005 0.03938,-5.5e-4 0.003,-10e-4 0.0061,-0.003 0.0085,-0.005 0.01033,-0.009 0.02113,-0.0122 0.03223,-0.0126 0.0083,-3.1e-4 0.01608,0.005 0.01872,0.013 0.0027,0.008 0,0.0169 -0.007,0.0218 -0.02843,0.0204 -0.05693,0.041 -0.09662,0.0365 -0.02113,-0.002 -0.04256,-0.003 -0.06369,-3.1e-4 -0.06509,0.007 -0.126524,0.0358 -0.173592,0.083 -0.01577,0.0158 -0.03247,0.0325 -0.04746,0.048 -0.0081,0.008 -0.0088,0.0213 -0.0016,0.0304 0.0072,0.009 0.02004,0.0113 0.0299,0.005 0.0068,-0.004 0.01437,-0.009 0.02268,-0.0138 0.02781,-0.0172 0.07899,-0.0381 0.106797,0.0155 3.88e-4,8e-5 8.54e-4,2.3e-4 0.0012,3.1e-4 0.0041,10e-4 0.0085,3.9e-4 0.01204,-0.002 0.03759,-0.0282 0.05662,-0.0809 0.111689,-0.0856 0.03915,-0.003 0.06827,0.0353 0.108428,0.0269 0.04497,-0.009 0.08225,-0.0439 0.131029,-0.0412 0.01802,0.001 0.06757,0.0142 0.07239,0.0171 0.01359,0.008 0.01359,0.008 0.08668,0.01 0.03076,5.4e-4 0.05305,0.0255 0.08217,0.0301 0.03542,0.006 0.06788,-0.0155 0.10268,-0.0126 1.55e-4,0 2.33e-4,0 3.88e-4,0 3.11e-4,0 3.11e-4,0 3.11e-4,0 9.32e-4,0 0.105398,-0.0199 0.103379,-0.0631 0,-8.5e-4 -4.66e-4,-0.002 -0.0012,-0.002 -4.66e-4,-2.4e-4 -8.54e-4,-5.5e-4 -0.0013,-7.8e-4 -0.03666,-0.0217 -0.06105,-0.0596 -0.06602,-0.10182 z M 14.531417,7.54773 c 0.03115,-0.0171 0.0038,-0.05 0.01196,-0.074 0.02151,-0.064 0.03588,-0.0657 0.06128,-0.0693 0.02462,-0.004 0.04761,-0.007 0.05616,-0.0199 0.04023,-0.0594 -0.101981,-0.23021 -0.190835,-0.20737 -0.09235,0.0238 -0.16668,0.15844 -0.197593,0.15658 -0.03915,-0.002 -0.05701,-0.003 -0.08326,0.0172 -0.02027,0.0156 -0.02284,0.0415 -0.03782,0.0601 -0.01755,0.0227 -0.04093,0.0405 -0.05895,0.063 -0.01507,0.0185 -0.02058,0.0348 5.43e-4,0.0539 0.01561,0.0137 0.02423,0.0214 -0.02167,0.0808 -0.03798,0.0488 -0.10066,0.0748 -0.127068,0.13491 -0.0094,0.0218 -0.0081,0.0652 -0.005,0.0825 0.01204,0.0627 0.109282,0.0374 0.167845,0.0121 0.0532,-0.0231 0.102757,-0.0549 0.159146,-0.0701 4.66e-4,-1.6e-4 0.0012,-3.2e-4 0.0016,-4.7e-4 0.07767,-0.0213 0.145553,-2.3e-4 0.168932,-0.0297 0.02284,-0.0291 0.06198,-0.082 0.08031,-0.12443 0.0088,-0.0211 -0.01359,-0.0508 0.01437,-0.0659 z M 7.686913,20.67705 C 7.649013,20.37344 6.68132,19.26532 6.407223,19.05926 6.190835,18.89654 6.034641,18.89538 6.034641,18.89499 c 0.0125,-0.13577 -0.04,-0.26959 -0.141437,-0.36062 -0.03837,-0.0343 -0.0668,-0.0799 -0.09515,-0.12575 -0.03798,-0.0616 -0.105165,-0.099 -0.177475,-0.0991 -0.07239,0 -0.139729,0.0373 -0.177632,0.0989 0,0 -1.55e-4,8e-5 -1.55e-4,1.5e-4 0.06501,-0.21677 0.06804,-0.22687 -0.103612,-0.43767 -0.09212,-0.11293 -0.104077,-0.10213 0.0071,-0.31037 0.016,-0.28419 -0.540194,-1.19099 -1.033009,-1.74648 -0.016,-0.0181 -0.03984,-0.0276 -0.06897,-0.0222 -0.05041,-0.0464 -0.294214,-0.94299 -0.348272,-1.15348 -0.0025,-0.0101 -2.33e-4,-0.0207 0.0064,-0.0288 0.04295,-0.0516 0.06012,-0.11976 0.04707,-0.18555 -0.0108,-0.0544 -0.032,-0.11775 -0.03534,-0.17297 -0.0062,-0.10229 -0.102214,-0.18602 -0.119379,-0.1739 -0.02672,0.0189 -0.05515,0.0209 -0.08023,0.0106 -0.02563,-0.0104 -0.04474,-0.0327 -0.0501,-0.0645 -0.02074,-0.11068 -0.117126,-0.19052 -0.229748,-0.19036 -0.04497,0 -0.05375,-0.01 -0.06113,-0.0421 C 3.260117,14.57701 3.2,15.2814 3.2,16 c 0,3.4139 1.333359,6.51309 3.507728,8.80683 -0.09841,-0.128 -0.204427,-0.35533 -0.205281,-0.38951 -0.0027,-0.089 -0.02074,-0.17802 -0.05336,-0.26089 -0.02757,-0.0704 -0.0598,-0.13965 -0.09165,-0.20886 -0.107573,-0.23456 0.375767,-0.27371 0.50998,-0.4939 7.8e-5,-1.6e-4 7.8e-5,-2.3e-4 1.56e-4,-3.9e-4 0.01017,-0.0204 0.09126,-0.0308 0.188582,0.0388 0.07767,0.0555 0.190214,-0.0729 0.179806,-0.11767 -0.03216,-0.14385 -0.03247,-0.16723 -0.01468,-0.29787 0.03013,-0.2233 -0.03076,-0.77662 -0.05701,-0.85126 -0.08847,-0.25266 -0.107185,-0.38058 -0.108427,-0.44186 -8.55e-4,-0.0448 0.119534,-0.079 0.141204,-0.15395 0.04388,-0.1513 0.302058,-0.432 0.38198,-0.56714 0.06944,-0.11744 0.124816,-0.2501 0.107884,-0.38532 z M 10.14967,4.8647 C 10.12839,4.8291 10.0852,4.813 10.045748,4.8259 10.018098,4.8349 9.965518,4.8528 9.949668,4.8289 9.944268,4.8199 9.944068,4.8093 9.94928,4.8006 9.96085,4.7812 9.99223,4.7408 9.99487,4.7224 9.99697,4.707 10.00489,4.693 10.01677,4.6829 10.02147,4.6789 10.0271,4.6759 10.03199,4.6727 8.781194,5.3325 7.653039,6.19293 6.690708,7.21196 c 0.004,-9.3e-4 0.0081,-0.001 0.0122,0 0.152077,0.0423 0.140737,0.009 0.270835,-0.14796 0.07557,-0.0913 0.212582,-0.12544 0.288621,-0.15208 0.07604,-0.0266 0.202252,-0.0389 0.202408,-0.0389 0.07324,-0.0137 0.28334,0.0339 0.344388,-0.0155 0.05111,-0.0414 -0.01437,-0.0557 0.01569,-0.10081 0.02882,-0.043 0.05328,-0.089 0.07293,-0.13686 0.01678,-0.0406 0.06695,-0.0527 0.104156,-0.0756 0.0633,-0.0389 0.0022,-0.0388 -0.01002,-0.0595 -0.0094,-0.016 9.32e-4,-0.0743 0.02439,-0.0782 3.1e-4,0 6.99e-4,8e-5 10e-4,3.9e-4 0.03332,0.0307 0.07984,0.0432 0.124039,0.033 0.03852,-0.009 0.05219,-0.0224 0.0633,-0.0459 0.0077,-0.0162 0.02182,-0.0285 0.03915,-0.0335 2.33e-4,-8e-5 5.44e-4,-1.6e-4 6.99e-4,-2.3e-4 C 8.348494,6.11037 7.88597,6.25188 7.885814,6.25157 7.867174,6.21447 8.129931,6.13071 8.17094,6.11891 c 2.33e-4,1.5e-4 4.66e-4,3.1e-4 6.22e-4,4.6e-4 3.1e-4,3.2e-4 6.99e-4,5.5e-4 0.0012,7e-4 0.02447,0.006 0.0466,0.003 0.0675,-0.005 0.124971,-0.0491 0.266097,0.0124 0.31534,0.13725 0,8e-5 0,8e-5 0,1.5e-4 0.01336,0.0336 0.04171,0.0589 0.07658,0.0682 0.04109,0.0109 0.08202,0.0227 0.125593,0.006 0.224388,-0.0836 0.289631,-0.0119 0.476893,-0.095 5.43e-4,-1.5e-4 0.0012,-4.6e-4 0.0016,-7e-4 0.244116,-0.10897 0.254912,-0.6504 0.586718,-0.9478 0.03254,-0.0291 0.06788,-0.0558 0.104932,-0.0792 0.06066,-0.0383 0.100272,-0.0975 0.142602,-0.15379 0.02019,-0.0268 0.04287,-0.0533 0.06633,-0.0773 0.0282,-0.0287 0.03355,-0.0729 0.01282,-0.10773 z m 18.197437,7.76109 c 0.0087,0.0266 0.0174,0.0558 0.0261,0.0841 -1.04466,-3.9454 -3.923185,-7.14073 -7.670291,-8.61973 0.02594,0.0207 0.04008,0.0536 0.03464,0.0878 -0.01017,0.0635 -0.08443,0.0815 -0.09017,0.0966 -0.01771,0.0465 0.102213,0.10765 0.137398,0.14292 0.01942,0.0195 0.02012,0.0509 0.0016,0.0712 -3.89e-4,3.9e-4 -0.0011,6.2e-4 -0.0016,4.7e-4 -0.05926,-0.0143 -0.121864,9.3e-4 -0.167923,0.0408 -0.04505,0.039 -0.108815,0.0664 -0.14633,0.0802 -0.02206,0.008 -0.04272,0.0207 -0.05996,0.0368 0,8e-5 -7.8e-5,1.5e-4 -1.55e-4,2.3e-4 -0.02082,-0.006 -0.04295,-0.006 -0.06322,0.002 -0.08373,0.0308 -0.13165,0.18943 -0.114407,0.24792 0.0064,0.0228 0.0019,0.048 -0.01344,0.0671 -0.01957,0.0245 -0.05235,0.034 -0.08186,0.0239 -0.01748,-0.006 -0.06633,0.0358 -0.04249,0.054 0.02804,0.0212 -0.01049,0.0368 -0.03922,0.0569 -0.01414,0.01 -0.03231,0.0133 -0.04994,0.008 -0.102136,-0.031 -0.09615,-0.0566 -0.127378,0.0231 -0.01476,0.0374 -0.03503,0.0728 -0.05996,0.10431 -0.016,0.0201 -0.01413,0.0492 0.0045,0.0671 0.150525,0.14501 -0.06633,0.12171 -0.144,0.0865 -0.07045,-0.0319 -0.111456,0.0877 0.01903,0.0882 0.03557,2.3e-4 0.06959,0.0155 0.09351,0.042 -7.8e-5,-8e-5 0,0 0,0 0.06711,0.0743 -0.08676,0.0499 -0.181748,0.0164 -0.0807,-0.0285 -0.157436,-0.0707 -0.224776,-0.12388 -0.04249,-0.0338 -0.05872,-0.091 -0.04023,-0.14198 0.01856,-0.051 0.06765,-0.0845 0.122019,-0.083 0.07837,0.002 0.145321,-0.056 0.154408,-0.13382 0.009,-0.0778 -0.04295,-0.1496 -0.119612,-0.16567 -0.188505,-0.0393 -0.39798,-0.0151 -0.572505,-0.0959 -0.150602,-0.0697 -0.27565,-0.0572 -0.313864,-0.10796 -0.01647,-0.0221 -0.02346,-0.0498 -0.01911,-0.077 0,0 0,-8e-5 0,-8e-5 -0.08109,-0.0157 -0.132505,-0.0256 -0.167301,-0.0326 -0.0334,-0.007 -0.135379,-0.008 -0.274797,0.0352 -0.300815,0.0954 -0.586097,0.37444 -0.586097,0.37444 -7.7e-5,0 -7.7e-5,0 -7.7e-5,0 0,0 -0.05717,0.098 -0.112699,0.16148 -0.05056,0.0579 -0.08901,0.12784 -0.145398,0.18027 -0.02229,0.0206 -0.03736,0.0476 -0.04334,0.0773 0,8e-5 -7.8e-5,2.4e-4 -1.56e-4,2.4e-4 -4.66e-4,7e-5 -6.99e-4,1.5e-4 -9.32e-4,2.3e-4 -0.02944,0.008 -0.05235,0.0315 -0.06058,0.061 -0.03674,0.13049 -0.139185,0.32482 -0.689631,0.55619 -7.8e-5,0 -1.56e-4,8e-5 -2.33e-4,8e-5 -0.161554,0.0683 -0.263301,0.23037 -0.254369,0.40559 0.0089,0.17523 0.126369,0.32637 0.29398,0.37795 0.208156,0.0641 0.255923,-0.16606 0.49134,-0.0959 0.08854,0.0264 0.159301,0.0934 0.190447,0.18035 0.03852,0.10742 0.09142,0.17057 0.09631,0.30796 0.04699,0.0469 0.184776,0.15045 0.200854,0.0802 0.03907,-0.16676 0.207922,-0.0573 0.280544,-0.19557 0.06221,-0.11884 -0.03115,-0.24389 0.01445,-0.3635 3.11e-4,-9.3e-4 6.99e-4,-0.002 0.0011,-0.003 0.05747,-0.14058 0.07223,-0.29312 0.04334,-0.44217 -0.01344,-0.0694 0.0042,-0.17476 0.03751,-0.37484 0.01328,-0.078 0.166602,-0.1186 0.203107,-0.17607 0.06369,-0.0994 -0.04272,-0.28956 0.116116,-0.32513 0.07946,-0.0177 0.222136,0.019 0.240777,0.10128 0.0067,0.0292 -2.33e-4,0.0599 -0.0188,0.0834 -0.04505,0.0574 -0.06516,0.13615 -0.105398,0.19759 -0.08109,0.12381 -0.09872,0.27953 -0.04691,0.41825 0.04458,0.11961 0.116583,0.22781 0.23068,0.23697 0.03278,0.003 0.06563,-0.006 0.0932,-0.0236 1.55e-4,-8e-5 2.33e-4,-1.5e-4 3.88e-4,-2.3e-4 2.33e-4,-8e-5 4.66e-4,-2.3e-4 6.21e-4,-3.1e-4 3.89e-4,-8e-5 4.66e-4,-8e-5 7.77e-4,-2.3e-4 l 0.163651,-0.0573 c 0.135534,-0.0474 0.282019,-0.0568 0.422368,-0.0262 7.8e-5,0 7.8e-5,0 1.56e-4,0 0.01336,0.003 0.02392,0.013 0.0275,0.0263 0.0035,0.0132 -8.54e-4,0.0273 -0.01111,0.0364 -0.169709,0.15107 -0.202019,0.0507 -0.380427,0.0834 -0.06113,0.0109 -0.107961,0.0602 -0.115728,0.12179 -0.0071,0.0555 0.01911,0.10936 0.06555,0.1384 0.0092,0.006 0.0146,0.0162 0.01367,0.027 0,3.1e-4 -7.8e-5,6.2e-4 -7.8e-5,9.3e-4 -0.0039,0.0539 -0.03767,0.10113 -0.08738,0.12234 -0.03751,0.016 -0.07946,0.0151 -0.115573,-10e-4 -0.02804,-0.0126 -0.06058,-0.01 -0.08621,0.007 -0.05111,0.0337 -0.03285,0.0582 -0.0428,0.10284 -0.01584,0.0714 -0.01181,0.14586 0.01181,0.21499 7.8e-5,8e-5 7.8e-5,8e-5 7.8e-5,1.5e-4 0.03883,0.11356 -0.171029,0.31705 -0.256,0.30136 -0.172505,-0.0318 -0.350835,-0.005 -0.505709,0.0778 -0.07324,0.0389 -0.163029,0.0273 -0.224078,-0.0288 -4.66e-4,-3.1e-4 -7.76e-4,-6.2e-4 -0.0011,-10e-4 -0.04078,-0.0373 -0.002,-0.0539 -0.05313,-0.0859 -0.01064,-0.007 -0.280156,0.10571 -0.292117,0.10998 -0.01235,0.005 -0.02602,0.003 -0.0372,-0.004 -0.01118,-0.007 -0.01841,-0.0187 -0.01965,-0.0318 -1.55e-4,-4.6e-4 -1.55e-4,-9.3e-4 -2.33e-4,-10e-4 -0.0094,-0.0777 -0.359146,-0.0678 -0.08629,-0.37056 4.66e-4,-5.4e-4 7.76e-4,-0.001 0.0013,-0.001 0.02819,-0.0311 0.04093,-0.0736 0.03425,-0.11511 -0.01087,-0.0694 0.0034,-0.1353 -0.06105,-0.16249 -2.33e-4,2.4e-4 -4.66e-4,4.7e-4 -6.99e-4,7e-4 -0.142835,0.14921 -0.211107,0.35565 -0.184932,0.56055 0.01755,0.2278 -0.09157,0.18951 -0.174757,0.1871 -0.03495,-10e-4 -0.06843,0.0137 -0.09134,0.0401 -2.33e-4,3.9e-4 -5.44e-4,7.8e-4 -8.55e-4,10e-4 -0.03324,0 -0.08047,0 -0.159844,0.007 -0.03402,0.003 -0.06509,0.0205 -0.08559,0.0475 -0.0023,0.003 -0.0032,0.007 -0.0026,0.0102 0.0029,0.019 -0.0093,0.0371 -0.02812,0.0415 -0.06144,0.0144 -0.117437,0.0439 -0.164116,0.0861 -0.108738,0.0985 -0.164194,0.13973 -0.278059,0.20327 -0.07984,0.0444 -0.150058,0.10174 -0.209708,0.17071 -0.02501,0.0288 -0.07837,0.0605 -0.204194,0.13181 -0.01157,0.007 -0.01996,0.0176 -0.02299,0.0307 -0.0063,0.0273 -0.02881,0.0478 -0.05647,0.0518 -0.112,0.0162 -0.14431,-0.0111 -0.208699,-0.0534 -0.03301,-0.0217 -0.05864,0.0234 -0.05033,0.0528 1.55e-4,4.7e-4 3.11e-4,9.3e-4 3.88e-4,0.001 0.0079,0.0282 0.0024,0.0584 -0.01468,0.0822 -0.01717,0.0238 -0.04419,0.0385 -0.0734,0.0399 -0.07728,0.004 -0.154486,-0.0127 -0.223612,-0.0475 -0.0061,-0.003 -0.0132,-0.004 -0.01965,-0.002 -0.112311,0.0359 -0.17833,0.17041 -0.150447,0.17328 0.193553,0.0211 0.190291,0.0547 0.267961,0.10408 0.09196,0.0582 0.04738,0.23813 0.18734,0.25328 6.99e-4,8e-5 0.0016,1.5e-4 0.0023,2.3e-4 0.0174,10e-4 0.03184,0.14315 0.03511,0.16093 0.0023,0.0132 -0.0033,0.0266 -0.01437,0.034 -7.7e-5,0 -7.7e-5,0 -7.7e-5,0 -0.04186,0.0277 -0.06975,0.0721 -0.07635,0.12179 -0.01266,0.0941 -0.003,0.1941 -0.06618,0.27472 -0.02672,0.0342 -0.08769,0.0968 -0.159301,0.0695 -0.07658,-0.0291 -0.158679,-0.0464 -0.240621,-0.0503 -0.338252,-0.0159 -0.536311,-0.0877 -0.63565,-0.13809 -0.07286,-0.037 -0.161865,-0.0194 -0.215224,0.0427 7.8e-5,-7e-5 0,0 0,0 -0.02377,10e-4 -0.05243,0.002 -0.08,0.004 -0.04986,0.003 -0.08505,0.0499 -0.07332,0.0985 0.02641,0.1099 0.02664,0.22143 -0.101981,0.55044 -0.005,0.0127 -0.01188,0.0301 -0.01833,0.0422 -0.04171,0.0777 -0.192078,0.22982 -0.155495,0.27021 0.0041,0.005 0.0099,0.007 0.01584,0.007 0.0313,6.9e-4 0.05911,0.0203 0.07029,0.0496 0.0096,0.0248 0.01134,0.0521 0.0048,0.078 -0.01056,0.0429 -0.05732,0.19231 -0.0386,0.22928 0.01064,0.0207 0.02936,0.0361 0.05173,0.0426 0.0327,0.01 0.05484,0.0356 0.08295,0.0527 0.02105,0.0123 0.08948,-0.0175 0.13033,-0.0351 0.03029,-0.0128 0.04885,-0.0211 0.115728,0.0558 0.06198,0.0708 0.01367,0.2348 0.144544,0.23759 0.03565,2.4e-4 0.05592,-0.0343 0.06478,-0.055 0.0095,-0.0229 0.0095,-0.0229 0.261747,-0.0779 0.111767,-0.0245 0.220195,0.0461 0.332272,0.0123 0.0859,-0.0263 0.09025,-0.13973 0.177787,-0.16451 0.0581,-0.0166 0.12,0.0157 0.177165,-0.0138 0.03076,-0.0168 0.0026,-0.11076 0.03635,-0.14058 7.8e-5,-8e-5 2.33e-4,-1.6e-4 3.11e-4,-2.4e-4 0.05204,-0.0447 0.07262,-0.11619 0.05212,-0.18174 -0.0096,-0.0314 -0.0077,-0.041 -0.0029,-0.0634 0.0056,-0.0271 0.08816,-0.0743 0.135456,-0.18307 0.004,-0.009 0.0087,-0.0178 0.01491,-0.0235 0.15433,-0.1412 0.36365,-0.17429 0.538718,-0.27441 0.153709,-0.0881 0.04652,-0.32535 0.228039,-0.39751 0.168,-0.0668 0.29266,0.16629 0.465165,0.0676 0.183068,-0.10439 0.411029,-0.23456 0.458951,-0.23681 0.04986,-0.002 0.09491,0.0101 0.132738,0.0274 0.05779,0.0266 0.106719,0.0695 0.14035,0.12358 0.166058,0.26687 0.482563,0.38027 0.67565,0.61949 0.02889,0.0359 0.176078,0.12365 0.232078,0.17624 0.09087,0.085 0.03876,-0.0256 0.117747,0.11091 3.89e-4,6.2e-4 7.77e-4,0.001 0.0012,0.002 0.03853,0.0597 0.106564,0.1652 0.04225,0.19231 -0.04505,0.0187 -0.04466,0.0324 -0.04404,0.0479 9.32e-4,0.0346 -0.02812,0.0666 -0.0071,0.10237 0.0059,0.0101 0.02882,0.0413 0.07736,0.0177 0.05748,-0.0295 0.03627,-0.0401 0.05918,-0.0845 0.05639,-0.11309 0.05468,-0.11969 0.05328,-0.11946 0.01942,-0.0139 0.05577,-0.003 0.06183,-0.0357 0.01499,-0.0789 -0.04039,-0.1054 -0.07682,-0.12256 -0.02322,-0.0114 -0.06664,-0.0319 -0.04054,-0.0993 6.21e-4,-0.002 0.0014,-0.003 0.0022,-0.005 2.33e-4,-6.2e-4 5.44e-4,-10e-4 7.77e-4,-0.002 0.0275,-0.0593 0.09685,-0.0859 0.156971,-0.0605 0.04388,0.0188 0.07783,0.028 0.09406,0.0733 0.003,0.008 0.0047,0.0161 0.0044,0.0222 -9.32e-4,0.0199 -0.0016,0.0386 0.0072,0.0465 0.01219,0.0111 0.05375,0.002 0.06517,-0.0194 0.0068,-0.0123 0.01499,-0.053 0.01452,-0.0657 0,-3.1e-4 0,-3.1e-4 0,-7e-4 0,-4.6e-4 -7.8e-5,-0.001 -2.33e-4,-0.002 -2.33e-4,-0.002 -0.0011,-0.004 -0.0021,-0.006 -0.10835,-0.16971 -0.310136,-0.18275 -0.466019,-0.27246 -0.01748,-0.0101 -0.02819,-0.0276 -0.03021,-0.0464 -0.0042,-0.0389 -0.0372,-0.0683 -0.07619,-0.068 -0.09553,0.001 -0.185631,-0.0457 -0.239923,-0.1245 L 17.38765,9.4852 C 17.3739,9.4653 17.36101,9.4445 17.34913,9.4232 17.32777,9.3844 17.34623,9.3367 17.3861,9.32146 c 0.0025,-10e-4 0.005,-0.002 0.0078,-0.003 0.0633,-0.019 0.13134,0.006 0.167534,0.0611 0.0181,0.0275 0.03604,0.0586 0.06897,0.0565 0.03977,-0.002 0.07891,0.009 0.111146,0.0324 l 0.56233,0.41009 c 2.33e-4,1.6e-4 4.66e-4,3.1e-4 6.99e-4,4.7e-4 0,0 0.04784,0.0102 0.119767,0.0581 0.01546,0.0103 0.03355,0.0151 0.05142,0.0144 0.02804,-0.001 0.05569,0.008 0.07775,0.0258 0.08528,0.0688 0.140194,0.16808 0.153165,0.27697 0.0057,0.0486 0.0095,0.093 0.01181,0.1245 0,8e-5 0,8e-5 0,1.6e-4 0.003,0.0405 0.02392,0.0777 0.05709,0.1012 0.01515,0.0107 0.03441,0.0252 0.04528,0.0366 0.01375,0.0146 0.01623,0.0189 0.04194,0.0625 0.01041,0.0181 0.07604,0.0765 0.0821,0.0816 3.11e-4,2.3e-4 5.44e-4,3.9e-4 8.55e-4,7e-4 0.0027,0.002 0.0101,0.007 0.02198,0.007 5.44e-4,0 0.0012,0 0.0016,0 0.0202,3.9e-4 0.0393,-0.008 0.05903,-0.007 0.06081,0.004 0.152,0.0808 0.22198,0.046 0.0063,-0.003 0.07953,-0.0458 0.07953,-0.0458 l 0.0012,-7.7e-4 c 0.169942,-0.0784 -0.03992,-0.15822 -0.04684,-0.23589 -0.0024,-0.0281 0.0079,-0.0485 0.02656,-0.0613 0.01763,-0.012 0.04008,-0.0147 0.06299,-0.004 0.01289,0.006 0.02788,0.004 0.03946,-0.004 7.8e-5,0 1.55e-4,-8e-5 1.55e-4,-8e-5 0.01382,-0.01 0.02338,-0.0244 0.0268,-0.041 0.01849,-0.0892 0.109981,-0.11527 0.200156,-0.11527 0.07526,0 0.149592,0.0191 0.215223,0.0556 0.02687,0.0149 0.05732,0.022 0.08847,0.0202 1.55e-4,0 2.33e-4,0 3.88e-4,0 0.05856,-0.003 0.114175,-0.0235 0.161398,-0.0583 0.02214,-0.0162 -0.02812,0.0438 -0.139184,0.086 -9.32e-4,3.1e-4 -0.0019,7e-4 -0.0026,0.001 -0.04637,0.019 -0.07192,0.0684 -0.06074,0.11721 0.02245,0.0979 0.226563,0.19472 0.09305,0.32054 -0.0016,0.002 -0.0033,0.003 -0.0049,0.005 1.55e-4,7e-5 3.88e-4,1.5e-4 4.66e-4,2.3e-4 0.07441,0.0302 0.136388,0.0835 0.177475,0.15239 0.135379,0.22679 0.588272,0.29786 0.628195,0.20124 1.55e-4,-3.9e-4 3.1e-4,-7e-4 3.88e-4,-10e-4 0.01996,-0.0519 0.07806,-0.0779 0.130019,-0.0582 0.103301,0.0391 0.195806,0.11635 0.314486,0.10431 0.06734,-0.007 0.116427,-0.0318 0.156505,-0.0662 0.111456,-0.0958 0.25064,-0.15394 0.397126,-0.16543 0,0 7.8e-5,0 1.55e-4,0 0.0012,-8e-5 0.0025,3.9e-4 0.0033,10e-4 9.32e-4,10e-4 0.0013,0.002 0.0011,0.003 -0.07371,0.43255 0.407767,0.9127 -0.06711,1.30509 -0.03751,0.0311 -0.104544,0.0467 -0.152466,0.0552 -0.42835,0.0757 -0.862214,0.008 -1.292117,0.037 -0.248466,0.0169 -0.284272,-0.0722 -0.361942,-0.0736 -4.66e-4,0 -9.32e-4,0 -0.0012,0 -6.99e-4,0 -0.0016,0 -0.0022,0 -0.08381,0.002 -0.09981,0.002 -0.224777,-0.0267 -0.07767,-0.0177 -0.285437,-0.31573 -0.568388,-0.0854 -0.08109,0.0662 -0.129476,0.152 -0.127068,0.20132 0.03526,0.70742 -0.835884,0.18719 -0.90035,0.10952 -0.09926,-0.11876 -0.231767,-0.20559 -0.380582,-0.24854 -0.163651,-0.0474 -0.361088,-0.11162 -0.48567,-0.1767 -0.09445,-0.0493 -0.208777,-0.0794 -0.257088,-0.0819 -0.01748,-0.003 -0.0261,-0.0888 0.02726,-0.14252 0.140737,-0.14191 0.184699,-0.19899 0.139961,-0.27425 -0.117592,-0.19783 -0.04016,-0.18074 -0.143845,-0.31472 -3.88e-4,-3.9e-4 -6.99e-4,-8.6e-4 -10e-4,-10e-4 -0.03666,-0.0472 -0.09421,-0.073 -0.153708,-0.0692 -1.75969,0.11216 -2.138408,0.16319 -2.485593,0.32963 -0.03076,0.0144 -0.09344,0.0444 -0.191534,0.001 -0.07511,-0.0332 -0.160077,-0.0365 -0.237514,-0.009 -7.8e-5,0 -7.8e-5,0 -7.8e-5,0 -0.113864,-0.0752 -0.26299,-0.0677 -0.368776,0.0183 l -0.573204,0.46571 c -0.05786,0.047 -0.108583,0.10384 -0.148661,0.16683 -0.103534,0.16334 -0.09678,0.28575 -0.09398,0.34462 0.0097,0.18354 -0.515262,0.52171 -0.792621,0.49026 -3.89e-4,-8e-5 -7e-4,-8e-5 -0.0012,-8e-5 0,-3.1e-4 0,-3.1e-4 0,-3.1e-4 -0.127224,0.0512 -0.23666,0.0957 -0.874253,0.98477 -0.350291,0.48808 -0.350291,0.48808 -0.279611,0.62346 0.03798,0.0727 0.115417,0.22051 0.05709,0.62579 -0.0037,0.0262 -0.0089,0.0528 -0.0153,0.0788 -0.003,0.0121 -0.0066,0.0248 -0.01018,0.0368 l -0.245359,0.81553 c -0.06866,0.22788 -0.02361,0.47581 0.121088,0.66486 7.7e-5,7e-5 7.7e-5,1.5e-4 1.55e-4,1.5e-4 7.77e-4,10e-4 0.0015,0.002 0.002,0.003 l 0.05344,0.10082 c 0.0089,0.0167 0.0174,0.0343 0.02509,0.0516 0.0525,0.11914 0.125825,0.78516 0.322718,1.08784 0.03083,0.0473 0.0668,0.0913 0.107184,0.13088 L 11.84,18.75441 c 0.109049,0.10726 0.325592,0.18035 0.475883,0.20924 0.442952,0.0851 0.913166,0.0884 1.348816,0.25282 0.02113,0.008 0.04971,0.0189 0.07223,0.02 0.504699,0.034 0.918291,-0.3857 1.40699,-0.42011 0.114874,-0.008 0.348583,0.0669 0.408,0.40901 0.04404,0.25476 0.437282,0.17413 0.622525,0.12 0.08404,-0.0245 0.17398,-0.0201 0.255223,0.013 6.21e-4,3.1e-4 0.0011,8.5e-4 0.0012,0.002 7.8e-5,5.4e-4 1.55e-4,0.001 3.11e-4,0.002 0.0056,0.0554 0.05452,0.0958 0.109903,0.0912 0.0016,-8e-5 0.0033,-2.4e-4 0.0049,-3.9e-4 0.03184,-0.003 0.06291,0.0115 0.08047,0.0381 0.101048,0.15286 0.0814,0.2515 0.06594,0.32544 -7.8e-5,1.6e-4 -7.8e-5,3.1e-4 -1.56e-4,5.4e-4 -2.33e-4,8.6e-4 -3.88e-4,0.002 -6.21e-4,0.003 l -0.0052,0.0249 c -1.55e-4,0.001 -3.88e-4,0.002 -5.44e-4,0.003 -0.004,0.0184 -0.0073,0.0374 -0.0099,0.0562 -0.05111,0.37491 -0.02004,0.54913 -0.193631,0.68816 -0.01872,0.0151 -0.03324,0.0341 -0.04287,0.0563 0.188272,0.38625 0.598758,0.58213 0.598758,0.58213 0.06012,0.064 0.414136,0.67426 0.451728,0.94354 0.05747,0.40986 0.05747,0.33196 0.06804,0.34982 0.180893,0.29577 0.02268,0.43526 -0.08769,0.49173 -0.03371,0.0174 -0.0508,0.0306 -0.06004,0.0488 -0.01647,0.0325 -0.03588,0.0648 -0.05662,0.0947 -0.01802,0.0258 -0.244427,0.63736 -0.24334,0.76411 0,2.4e-4 0,4.7e-4 0,7e-4 9.32e-4,0.1162 0.193321,0.22804 0.260971,0.32249 l 0.435262,0.60792 c 0.0075,0.0105 0.01538,0.0211 0.02346,0.0311 0.150524,0.1899 -0.08116,0.45841 0.05344,0.64909 0.04388,0.0622 0.151301,0.31153 0.207923,0.35067 0.08816,0.0607 0.457553,0.59465 0.347961,0.68529 -0.01157,0.01 -0.01018,0.0356 -0.0051,0.0502 0.03301,0.0952 0.480543,0.24715 0.645903,0.17647 0.24567,-0.10501 0.760854,-0.18703 0.970796,-0.18556 0.29033,0.002 1.687378,-0.99937 1.577243,-1.34462 -0.0015,-0.005 -0.0019,-0.009 -0.0012,-0.0141 0,-1.5e-4 7.8e-5,-1.5e-4 2.33e-4,-3.1e-4 0.16334,-0.19277 0.637204,-0.42998 0.624311,-0.45437 -2.33e-4,-4.6e-4 -3.88e-4,-7.7e-4 -6.21e-4,-0.001 0.06136,-0.13631 0.08249,-0.24948 0.08357,-0.33926 0.0029,-0.24404 0.120155,-0.47247 0.316427,-0.61732 0.167378,-0.12389 0.41134,-0.30043 0.768932,-0.55946 0.223301,-0.16179 0.335689,-0.27643 0.31666,-0.97367 -0.01763,-0.63953 -0.131573,-1.13872 -0.169709,-1.24652 -0.05359,-0.15123 -0.0386,-0.17934 0.02175,-0.29181 0.179495,-0.33149 0.422757,-0.62369 0.594485,-0.96031 0.27301,-0.53491 0.608311,-0.8494 0.792078,-1.01965 0.0081,-0.008 0.01546,-0.0151 0.02252,-0.0235 0.332505,-0.38982 0.523728,-0.91658 0.644583,-1.41072 0.02563,-0.10477 0.06633,-0.20434 0.09701,-0.30726 0.02315,-0.0779 0.05678,-0.1447 0.09802,-0.5478 0.0072,-0.0689 -0.03099,-0.13064 -0.02765,-0.19899 0.0153,-0.26548 -0.07596,-0.0315 -0.153708,0.006 -0.198602,0.0943 -0.09118,0.0612 -0.177554,0.1172 -0.04194,0.0264 -0.362174,0.13957 -0.400932,0.17546 -0.0452,0.0419 -0.08769,0.0886 -0.153242,0.0971 -0.394486,0.0494 -0.464156,0.0581 -0.533826,-0.006 -0.06602,-0.0607 -0.107961,-0.13708 -0.125437,-0.22501 -0.01825,-0.0923 -0.06501,-0.17794 -0.135922,-0.24419 -0.377631,-0.35231 -1.11767,-0.5812 -1.292893,-1.53709 -0.02664,-0.14369 -1.078447,-1.66252 -1.294214,-1.96978 -0.02416,-0.0343 -0.03192,-0.0776 -0.02136,-0.11814 1.55e-4,-4.7e-4 1.55e-4,-10e-4 3.11e-4,-0.002 0.04101,0.10454 0.204194,0.29126 0.303844,0.39409 0.02851,0.0295 0.06866,0.043 0.101282,0.0183 0.03883,-0.0295 0.01305,-0.0732 0.02105,-0.21242 0.0023,-0.0398 0.05988,-0.0426 0.06633,-0.004 0.0146,0.0869 0.05654,0.16613 0.119922,0.22734 0.13965,0.13468 0.309747,0.38462 0.421825,0.56038 0.06874,0.10789 0.161709,0.19565 0.273165,0.25857 0.159456,0.0901 0.207379,0.23751 0.321398,0.58734 0.135068,0.41429 0.619961,0.51324 0.799146,0.8873 0.151767,0.31557 0.192155,0.67518 0.38501,0.97476 0.0013,0.002 0.0026,0.004 0.0042,0.006 0.02454,0.0332 0.06656,0.0488 0.106951,0.0394 0.293282,-0.0688 0.633476,-0.43596 0.717748,-0.50151 0.176932,-0.13787 0.305476,-0.24156 0.399767,-0.32094 0.128466,-0.10819 0.217864,-0.2539 0.256233,-0.41739 0.03247,-0.13779 0.242019,-0.25849 0.305009,-0.25888 0.163962,-10e-4 0.09041,-0.21413 0.158758,-0.30944 0.07285,-0.10058 0.07845,-0.2132 0.162252,-0.30236 0.02703,-0.0287 0.05841,-0.0519 0.09367,-0.0694 0.0036,-0.002 0.006,-0.005 0.0068,-0.009 0.02066,-0.10742 -0.04676,-0.20552 -0.04575,-0.31092 3.1e-4,-0.0272 0.02555,-0.0482 0.05274,-0.0428 9.32e-4,1.5e-4 0.0019,0 0.0027,-6.2e-4 6.99e-4,-5.5e-4 0.0013,-0.001 0.0015,-0.002 0.05817,-0.33173 0.170019,-0.61189 -0.123262,-0.7496 -0.115651,-0.055 -0.255845,0.0315 -0.364505,-0.062 -6.22e-4,-5.5e-4 -0.0013,-10e-4 -0.0018,-0.002 -0.05957,-0.0513 -0.139495,-0.072 -0.216388,-0.0562 -0.07689,0.0158 -0.142136,0.0665 -0.176466,0.13716 -3.11e-4,5.5e-4 -6.99e-4,10e-4 -9.32e-4,0.002 -0.03006,0.0613 -0.08839,0.10354 -0.155961,0.11317 -0.109126,0.0154 -0.09717,0.035 -0.181049,0.0983 -7.7e-5,8e-5 -1.55e-4,8e-5 -3.1e-4,0 -0.177787,-0.0933 -0.288078,-0.10151 -0.916272,-1.0379 -0.187495,-0.27899 0.06749,-0.41872 0.15565,-0.31658 1.56e-4,1.5e-4 3.89e-4,-1.6e-4 3.89e-4,-1.6e-4 1.55e-4,-8e-5 3.88e-4,-1.6e-4 6.21e-4,-3.1e-4 0.07821,0.0847 0.39635,0.42167 0.654524,0.56582 0.08769,0.0489 0.352855,0.11597 0.401321,0.0271 0.179339,-0.32808 0.308505,-0.0902 0.333437,-0.0374 0.131883,0.28055 0.499805,0.0359 0.581669,0.04 0.17903,0.009 0.162952,-0.0276 0.675962,-0.3179 0.203262,-0.11518 0.447534,-0.13297 0.66532,-0.0485 0.217864,0.0851 0.386175,0.26299 0.458874,0.48505 z M 17.964738,11.11915 c 0.0058,-0.046 0.0421,-0.0795 0.05041,-0.12459 0.004,-0.0205 -0.0029,-0.031 -0.02035,-0.0328 -0.0026,-2.3e-4 -0.0052,-1.6e-4 -0.0078,3.1e-4 -0.01173,0.002 -0.02206,0.009 -0.03425,0.0105 -0.03883,0.004 -0.03433,-0.0134 -0.06812,0.006 -0.01724,0.01 -0.0327,0.0233 -0.05297,0.028 -0.01918,0.004 -0.03643,-0.008 -0.05569,-0.006 -0.02625,0.002 -0.04256,0.0294 -0.07006,0.0287 -0.03658,-0.001 -0.06027,-0.033 -0.09476,-0.0391 -0.02198,-0.004 -0.03448,0.0209 -0.05561,0.0192 -0.02144,-0.002 -0.01522,-0.0104 -0.03262,-0.016 -0.02703,-0.009 -0.0581,0.0882 -0.0525,0.0977 0.0085,0.0147 0.02144,0.0168 0.02882,0.0175 6.21e-4,0 0.0014,7e-5 0.0019,1.5e-4 0.0146,10e-4 0.02656,-0.01 0.04117,-0.0106 0.04109,-0.003 0.173282,0.0886 0.218796,0.10804 0.01476,0.006 0.03107,0.009 0.04497,0.0171 0.02625,0.0158 0.04544,0.0412 0.07301,0.0544 0.0092,0.005 0.02478,0.0117 0.04691,0.008 0.01561,-0.003 0.03876,-0.007 0.0633,-0.0876 0.01033,-0.0322 -0.02843,-0.0491 -0.02454,-0.079 z"
     inkscape:connector-curvature="0" /></svg>