<?xml version="1.0" encoding="UTF-8" standalone="no"?>
<!-- License Agreement at http://iconmonstr.com/license/ -->

<svg
   xmlns:dc="http://purl.org/dc/elements/1.1/"
   xmlns:cc="http://creativecommons.org/ns#"
   xmlns:rdf="http://www.w3.org/1999/02/22-rdf-syntax-ns#"
   xmlns:svg="http://www.w3.org/2000/svg"
   xmlns="http://www.w3.org/2000/svg"
   xmlns:sodipodi="http://sodipodi.sourceforge.net/DTD/sodipodi-0.dtd"
   xmlns:inkscape="http://www.inkscape.org/namespaces/inkscape"
   version="1.1"
   x="0px"
   y="0px"
   width="200"
   height="259.30313"
   viewBox="0 0 200 259.30313"
   enable-background="new 0 0 512 512"
   xml:space="preserve"
   id="svg2"
   inkscape:version="0.48.4 r9939"
   sodipodi:docname="linux-os.svg"><metadata
     id="metadata9"><rdf:RDF><cc:Work
         rdf:about=""><dc:format>image/svg+xml</dc:format><dc:type
           rdf:resource="http://purl.org/dc/dcmitype/StillImage" /></cc:Work></rdf:RDF></metadata><defs
     id="defs7" /><sodipodi:namedview
     pagecolor="#ffffff"
     bordercolor="#666666"
     borderopacity="1"
     objecttolerance="10"
     gridtolerance="10"
     guidetolerance="10"
     inkscape:pageopacity="0"
     inkscape:pageshadow="2"
     inkscape:window-width="1366"
     inkscape:window-height="721"
     id="namedview5"
     showgrid="false"
     fit-margin-top="0"
     fit-margin-left="0"
     fit-margin-right="0"
     fit-margin-bottom="0"
     inkscape:zoom="0.4609375"
     inkscape:cx="158.88745"
     inkscape:cy="206.00034"
     inkscape:window-x="-2"
     inkscape:window-y="-3"
     inkscape:window-maximized="1"
     inkscape:current-layer="svg2" /><path
     id="linux-os-icon"
     d="m 195.34325,205.81356 c -6.10808,-4.8185 -3.73345,-15.46375 -10.08322,-20.71148 6.3e-4,0 0.001,6.3e-4 0.002,0.001 6.14774,-36.35965 -11.07134,-68.40555 -31.60597,-88.94019 C 136.41998,78.92619 141.98051,62.16341 141.98051,47.64875 141.98114,24.45501 132.19876,0 102.53693,0 70.824594,0 62.146764,25.71691 61.831454,40.39017 c -0.7584,35.2425 7.33033,44.39614 -13.88465,70.05199 -24.95033,30.17478 -28.62966,60.27465 -23.00304,76.24254 0,-6.3e-4 0,-6.3e-4 6.3e-4,-0.001 -2.63205,2.9845 -6.18865,6.28935 -12.83737,9.02776 -18.35259,7.78348 -4.90347,20.79393 -9.972457,30.03568 -5.866408,10.69498 0.590983,23.44486 16.518587,22.05583 10.20217,-0.88679 20.93428,3.29038 30.25219,7.41153 13.1124,5.80158 24.94844,0.17937 29.48434,-8.87672 15.29949,-3.66611 34.189556,-3.20037 49.477086,0.63001 4.70521,12.7738 23.11696,17.89881 35.92538,4.23695 5.62095,-5.9948 14.49199,-15.23403 24.95599,-18.63643 12.27093,-3.98961 14.56123,-20.4698 6.59522,-26.75475 z M 93.713614,92.74816 c -3.54276,0 -6.47565,-2.79128 -11.1154,-6.13641 -5.87208,-4.23569 -11.83289,-6.67515 -11.76995,-11.13176 0,-3.05058 4.20863,-3.99905 9.66028,-7.35866 5.84375,-3.60317 8.11831,-7.24851 13.86703,-7.24851 5.888426,0 7.677746,2.89575 15.663256,6.25473 7.8779,3.31366 13.34213,4.60892 13.34213,8.35244 0,3.83667 -8.23034,6.58767 -12.86569,9.37707 -6.78907,4.08338 -10.2928,7.8911 -16.770336,7.8911 -6.4769,0 3.53206,0 -0.0113,0 z m 18.499856,-56.3549 c 9.79811,1.52246 10.90581,18.26951 6.20438,26.51622 -1.18763,-0.47203 -2.15435,-0.84085 -3.94178,-1.56463 2.03855,-5.8727 2.0096,-15.52606 -4.83927,-16.14285 -4.33954,-0.39084 -7.14152,5.19046 -7.74257,9.96238 -1.70687,-0.68916 -3.562266,-1.19015 -5.821726,-1.36889 0.70679,-9.97497 7.330966,-18.77112 16.140966,-17.40223 z M 74.399964,39.97 c 7.50782,-1.81889 11.94303,6.67768 11.97765,15.50655 -1.2361,0.59665 -2.36205,1.30533 -3.43639,2.0568 -0.46952,-3.71017 -2.1745,-9.69615 -6.43663,-8.41223 -4.57681,1.37833 -3.83289,11.69505 -1.28518,13.8129 -1.11966,0.64322 -2.22673,1.21847 -3.39737,1.83526 -4.66052,-7.63999 -4.65738,-23.04647 2.57792,-24.79928 z m -23.50654,207.91605 c -21.81289,-9.64707 -29.2263,-7.45432 -33.38962,-7.45432 -8.63881,0 -11.45652,-6.25474 -8.21083,-12.17401 2.75603,-5.02242 1.90512,-10.28651 1.22162,-14.51403 -1.04728,-6.47061 -1.23924,-8.58531 5.31067,-11.37218 9.05671,-3.73597 13.08156,-8.53937 16.07991,-12.14128 8.42482,-10.12099 16.92768,5.79466 23.89675,19.98455 4.5164,9.19392 13.4271,13.85382 16.15733,24.03711 2.52253,9.41105 -7.88482,19.46595 -21.06583,13.63416 z m 77.639746,-20.24701 c -15.37061,7.27369 -34.968096,10.60875 -49.615546,3.22555 -2.16946,-6.08354 -5.63669,-10.01777 -9.36574,-13.97024 l 0,0 c 5.98599,-1.53379 10.43882,-8.79867 5.11179,-16.10006 -5.68011,-7.78285 -17.27321,-13.22003 -29.00476,-22.03569 -10.96939,-8.24356 -14.43662,-28.55728 0.49972,-51.2771 -7.2825,20.11736 -3.02415,38.65498 0.63126,43.96691 0.76218,-10.67673 1.63009,-28.50504 16.61866,-49.85723 7.5695,-10.78246 7.67964,-25.02837 7.8502,-33.93152 2.28967,1.57344 4.63724,2.9631 6.88474,4.58563 5.06018,3.6466 9.30468,7.65132 15.392,7.65195 h 0.017 c 9.000056,0 13.958906,-5.035 20.899656,-9.20965 2.70695,-1.62882 6.80733,-3.26457 10.24938,-5.54354 5.77389,26.74971 29.7147,58.92401 31.05842,77.25835 5.57501,-11.14939 -1.57722,-37.97148 -1.57722,-37.97148 9.3607,13.88528 10.09707,25.45446 10.51813,39.65443 6.54739,2.60372 13.5687,9.38776 14.20437,18.32111 -0.8377,-0.14412 -1.74022,-0.2486 -2.7189,-0.30273 -1.40288,-9.92713 -28.97645,-24.50913 -31.45241,-5.81542 -13.21688,1.94917 -8.41286,22.3189 -11.06882,35.52068 -1.21344,6.03005 -3.48989,10.80638 -5.13193,15.83005 z m 53.83803,-0.44308 c -10.93918,4.10227 -18.33182,12.82164 -23.41214,18.23993 -9.78175,10.43504 -22.71856,5.4334 -24.08556,-4.32696 -1.4633,-10.44007 3.9959,-16.129 6.34788,-27.81524 2.14491,-10.66665 -0.25868,-27.07888 4.78577,-28.82413 3.28219,18.94419 22.95458,10.98511 27.44895,5.80661 7.30327,0 7.9125,2.39541 9.54573,9.04602 1.02148,4.15954 2.43065,7.66264 6.41586,11.78064 4.6643,4.8185 3.23561,12.23695 -7.04649,16.09313 z M 93.490814,86.67092 c -7.2353,0 -12.64793,-4.6813 -17.04223,-8.30335 -2.25694,-1.85792 0.55133,-5.26788 2.80764,-3.41059 4.30367,3.54842 8.63755,7.29635 14.23396,7.29635 6.745006,0 12.679386,-5.60711 20.744836,-8.69293 2.73841,-1.04225 4.30367,3.08331 1.5791,4.12618 -7.81055,2.98891 -14.0936,8.98434 -22.323306,8.98434 z"
     inkscape:connector-curvature="0" /></svg>