<?xml version="1.0" encoding="UTF-8" standalone="no"?>
<!-- Created with Inkscape (http://www.inkscape.org/) -->

<svg
   xmlns:dc="http://purl.org/dc/elements/1.1/"
   xmlns:cc="http://creativecommons.org/ns#"
   xmlns:rdf="http://www.w3.org/1999/02/22-rdf-syntax-ns#"
   xmlns:svg="http://www.w3.org/2000/svg"
   xmlns="http://www.w3.org/2000/svg"
   xmlns:sodipodi="http://sodipodi.sourceforge.net/DTD/sodipodi-0.dtd"
   xmlns:inkscape="http://www.inkscape.org/namespaces/inkscape"
   width="300"
   height="200"
   id="svg2"
   version="1.1"
   inkscape:version="0.48.4 r9939"
   sodipodi:docname="Documento nuevo 1">
  <defs
     id="defs4" />
  <sodipodi:namedview
     id="base"
     pagecolor="#ffffff"
     bordercolor="#666666"
     borderopacity="1.0"
     inkscape:pageopacity="0.0"
     inkscape:pageshadow="2"
     inkscape:zoom="0.98994949"
     inkscape:cx="303.33117"
     inkscape:cy="44.306488"
     inkscape:document-units="px"
     inkscape:current-layer="layer1"
     showgrid="false"
     fit-margin-top="0"
     fit-margin-left="0"
     fit-margin-right="0"
     fit-margin-bottom="0"
     inkscape:window-width="1366"
     inkscape:window-height="721"
     inkscape:window-x="-2"
     inkscape:window-y="-3"
     inkscape:window-maximized="1" />
  <metadata
     id="metadata7">
    <rdf:RDF>
      <cc:Work
         rdf:about="">
        <dc:format>image/svg+xml</dc:format>
        <dc:type
           rdf:resource="http://purl.org/dc/dcmitype/StillImage" />
        <dc:title></dc:title>
      </cc:Work>
    </rdf:RDF>
  </metadata>
  <g
     inkscape:label="Capa 1"
     inkscape:groupmode="layer"
     id="layer1"
     transform="translate(-178.47501,-254.23381)">
    <rect
       style="fill:#ffffff;fill-opacity:1;stroke:none"
       id="rect2985"
       width="300"
       height="200"
       x="178.47501"
       y="254.23381" />
    <path
       d="m 324.01989,338.71099 c 1.07548,0.88642 2.15826,1.82306 3.5568,1.82306 1.68496,0 3.16796,-1.40072 5.18326,-2.17208 0.68398,-0.26044 1.075,0.77038 0.3944,1.0313 -1.95194,0.7466 -3.52184,2.2449 -5.57766,2.2449 -1.80826,0 -3.16044,-1.16966 -4.25874,-2.07474 -0.5636,-0.46458 0.1382,-1.31652 0.70194,-0.85244 z m 29.32646,36.15922 c -0.22718,1.2716 -1.05388,2.25584 -2.2114,2.63204 -2.8818,0.93738 -5.27864,3.4937 -6.56628,4.86676 -1.07304,1.14466 -2.41698,1.775 -3.78446,1.775 -2.88786,0 -3.78664,-2.32888 -4.20266,-3.05874 -2.11118,-0.52912 -4.69976,-0.80874 -7.06238,-0.80874 -2.08762,0 -4.35218,0.22476 -6.12428,0.64952 -0.56942,0.90776 -1.52426,2.7864 -4.3,2.7864 -0.76918,0 -1.5568,-0.1764 -2.34078,-0.52282 -2.48494,-1.09902 -5.23762,-2.05364 -7.94562,-1.91626 -3.52718,0.1786 -4.48568,-2.31504 -3.36966,-4.34976 0.59416,-1.08324 0.40266,-2.26722 0.23398,-3.3114 -0.2682,-1.65826 -0.4619,-2.8568 1.8682,-3.8449 1.10292,-0.45414 3.0216,-1.39442 3.658,-2.96724 -1.41456,-4.01334 -0.23688,-11.5017 5.60316,-18.56456 4.15704,-5.02718 4.01286,-7.82038 3.77476,-12.44854 -0.0808,-1.56748 -0.1726,-3.34394 -0.1252,-5.53982 0.0742,-3.46262 2.13496,-9.3228 9.38496,-9.3228 8.18592,0 9.0694,7.77596 9.0694,11.11916 0,3.625 -1.4449,8.08568 3.14758,12.6784 2.9085,2.9085 9.47646,10.7221 7.68446,21.40656 0.69442,1.00874 1.1272,2.35898 1.292,3.09612 0.23106,1.03252 0.53884,2.1915 1.50898,2.95704 0.68544,0.5415 1.00194,1.59636 0.80728,2.68858 z m -25.12476,-41.28956 c 0.56456,0.0446 1.02816,0.1696 1.45462,0.342 0.1502,-1.19224 0.85024,-2.5869 1.93422,-2.48908 1.7119,0.1538 1.71892,2.56602 1.20946,4.0335 0.4466,0.1808 0.68836,0.27306 0.98544,0.39102 1.17452,-2.06068 0.89732,-6.24516 -1.55098,-6.62574 -2.20096,-0.34198 -3.85654,1.85608 -4.03276,4.3483 z m -0.42912,1.7682 c -1.43666,0 -2.00486,0.91094 -3.4653,1.81094 -1.36164,0.83956 -2.41334,1.07668 -2.41334,1.83882 -0.016,1.1136 1.47354,1.72306 2.94102,2.78132 1.15898,0.83616 1.89198,1.53324 2.77694,1.53324 9.6e-4,0 0.002,0 0.004,0 1.61796,0 2.4932,-0.95144 4.19004,-1.97184 1.15826,-0.69708 3.21456,-1.38446 3.21456,-2.34296 0,-0.93544 -1.36528,-1.25898 -3.3335,-2.0869 -1.99514,-0.83906 -2.44222,-1.56262 -3.91358,-1.56262 z m -5.63082,0.97356 c 0.2927,-0.154 0.5694,-0.29782 0.84926,-0.4585 -0.63664,-0.52912 -0.82306,-3.1068 0.32064,-3.45146 1.06578,-0.32064 1.49126,1.17524 1.60874,2.10218 0.2682,-0.1876 0.54974,-0.3648 0.85848,-0.51382 -0.008,-2.20632 -1.11698,-4.32914 -2.99272,-3.87476 -1.808,0.43786 -1.80872,4.28762 -0.6444,6.19636 z m -0.1228,41.74854 c -0.64564,-2.40826 -2.86384,-3.01214 -3.9318,-5.18616 -1.64758,-3.35534 -3.62112,-6.96676 -5.63446,-4.6988 -0.73568,0.82864 -1.4255,1.74684 -3.56676,2.63058 -1.54878,0.65898 -1.7347,1.19636 -1.48738,2.72598 0.1616,1 0.45414,2.23592 -0.1976,3.42378 -0.76724,1.39976 -0.38568,2.80778 1.65678,2.80778 0.98472,0 3.067,-0.42816 8.28448,1.71334 3.39782,1.39466 5.47282,-1.19174 4.8767,-3.4165 z m 18.34126,-13.88326 c 0.61892,-4.67088 7.50898,-1.02742 7.85946,1.4534 0.2869,0.0262 0.49976,0.0786 0.67986,0.1274 -0.1592,-2.23228 -1.91408,-3.97936 -3.55,-4.62984 -0.1054,-3.54806 -0.28932,-6.43884 -2.62792,-9.9085 0,0 1.7869,6.70218 0.39394,9.48786 -0.33568,-4.58106 -6.31772,-12.62062 -7.7602,-19.30436 -0.86044,0.56942 -1.8852,0.9779 -2.56116,1.38518 -1.73446,1.04296 -2.9733,2.30098 -5.22234,2.30098 h -0.004 c -1.52088,0 -2.5818,-1.00072 -3.84612,-1.9119 -0.56164,-0.4051 -1.14806,-0.75242 -1.72038,-1.14562 -0.0422,2.2245 -0.07,5.78422 -1.96166,8.4784 -3.7449,5.33544 -3.96164,9.79004 -4.1517,12.45752 -0.91384,-1.32718 -1.97742,-5.95898 -0.1582,-10.98592 -3.7318,5.67742 -2.86554,10.75266 -0.1246,12.81286 2.93106,2.20242 5.8279,3.56092 7.24708,5.50582 1.33082,1.82428 0.2182,3.63956 -1.27718,4.02258 0.93156,0.98762 1.79806,1.97088 2.34004,3.49126 3.65996,1.84466 8.55704,1.01116 12.39734,-0.80632 0.41044,-1.25508 0.97912,-2.44854 1.28228,-3.95558 0.66408,-3.29854 -0.5364,-8.38786 2.76578,-8.87524 z m 10.38714,8.6971 c -0.96044,-0.99248 -1.28034,-2.0136 -1.52646,-3.01602 -0.39394,-1.60292 -0.40268,-2.28982 -2.16262,-2.28982 -1.08326,1.24806 -5.82452,3.16578 -6.61554,-1.39976 -1.21578,0.42064 -0.47718,4.26578 -0.99418,6.83666 -0.56698,2.8165 -1.69222,4.475 -1.33956,6.9915 0.32938,2.35218 3.10608,3.28616 5.46336,0.77136 1.2245,-1.30656 2.99052,-3.33324 5.63398,-4.30218 2.72062,-0.99734 2.6648,-2.43034 1.54102,-3.59174 z m 27.70776,-18.65098 c 0,27.61432 -22.38568,50 -50,50 -27.61432,0 -50,-22.38568 -50,-50 0,-27.61432 22.38568,-50 50,-50 27.61432,0 50,22.38568 50,50 z m -24.9619,16.71384 c -0.54586,-0.43034 -0.73592,-1.20316 -0.95582,-2.09758 -0.22622,-0.9199 -0.4784,-1.94684 -1.20874,-2.74248 1.6971,-11.21068 -5.13664,-19.45048 -8.18276,-22.49708 -4.02548,-4.02572 -2.68714,-7.8898 -2.68714,-11.56626 0,-7.21286 -3.48592,-12.69176 -10.64198,-12.69176 -8.4653,0 -10.87064,6.8272 -10.95704,10.86166 -0.0488,2.25316 0.0446,4.0602 0.1266,5.65436 0.23348,4.53424 0.35048,6.8102 -3.41628,11.3653 -6.02232,7.28422 -7.358,14.85632 -6.03082,19.35582 -0.55776,0.57452 -1.3296,1.19346 -2.62524,1.72718 -3.47306,1.47282 -3.09198,3.82744 -2.81432,5.54686 0.1474,0.90946 0.27428,1.69466 -0.06,2.30364 -0.8233,1.50096 -0.84198,3.19442 -0.0508,4.53058 0.99514,1.68034 2.9386,2.31602 4.93568,2.14198 2.37742,-0.20678 4.9653,0.81166 7.17258,1.78762 0.98592,0.43666 1.98762,0.65754 2.97742,0.65754 2.20242,0 4.17184,-1.10486 5.22962,-2.90754 1.57378,-0.3461 3.3614,-0.52814 5.19466,-0.52814 2.09368,0 4.18494,0.23082 6.075,0.66942 1.69392,3.6347 6.79272,4.4767 10.1216,0.92524 1.19078,-1.2699 3.40752,-3.63422 5.90534,-4.44612 1.71868,-0.55898 2.94174,-1.99854 3.2733,-3.85122 0.30024,-1.68082 -0.22914,-3.2898 -1.38108,-4.19902 z"
       id="linux-os-4-icon"
       inkscape:connector-curvature="0"
       style="fill:#91a546;fill-opacity:1" />
  </g>
</svg>
